<svg width="192" height="192" viewBox="0 0 192 192" fill="none" xmlns="http://www.w3.org/2000/svg"><rect width="192" height="192" rx="24" fill="url(#gradient)"/><defs><linearGradient id="gradient" x1="0%" y1="0%" x2="100%" y2="100%"><stop offset="0%" style="stop-color:#8b5cf6"/><stop offset="100%" style="stop-color:#3b82f6"/></linearGradient></defs><path d="M96 48c-4.418 0-8 3.582-8 8v4c0 4.418 3.582 8 8 8s8-3.582 8-8v-4c0-4.418-3.582-8-8-8zm36.364 12.364c-3.124-3.124-8.196-3.124-11.32 0l-2.829 2.829c-3.124 3.124-3.124 8.196 0 11.32 3.124 3.124 8.196 3.124 11.32 0l2.829-2.829c3.124-3.124 3.124-8.196 0-11.32zM152 88c-4.418 0-8 3.582-8 8s3.582 8 8 8h4c4.418 0 8-3.582 8-8s-3.582-8-8-8h-4zm-12.364 36.364c-3.124-3.124-8.196-3.124-11.32 0-3.124 3.124-3.124 8.196 0 11.32l2.829 2.829c3.124 3.124 8.196 3.124 11.32 0 3.124-3.124 3.124-8.196 0-11.32l-2.829-2.829zM96 136c-4.418 0-8 3.582-8 8v4c0 4.418 3.582 8 8 8s8-3.582 8-8v-4c0-4.418-3.582-8-8-8zm-36.364-12.364c-3.124-3.124-8.196-3.124-11.32 0l-2.829 2.829c-3.124 3.124-3.124 8.196 0 11.32 3.124 3.124 8.196 3.124 11.32 0l2.829-2.829c3.124-3.124 3.124-8.196 0-11.32zM40 88c-4.418 0-8 3.582-8 8s3.582 8 8 8h4c4.418 0 8-3.582 8-8s-3.582-8-8-8h-4zm12.364-36.364c-3.124-3.124-8.196-3.124-11.32 0-3.124 3.124-3.124 8.196 0 11.32l2.829 2.829c3.124 3.124 8.196 3.124 11.32 0 3.124-3.124 3.124-8.196 0-11.32l-2.829-2.829z" fill="white"/></svg>
